<svg width="13" height="13" viewBox="0 0 13 13" fill="none" xmlns="http://www.w3.org/2000/svg">
<circle cx="6.5" cy="6.5" r="6.5" fill="#FB6C6C"/>
<path d="M4.16746 9C4.11962 9 4.07974 8.98571 4.04785 8.95714C4.01595 8.92857 4 8.89286 4 8.85C4 8.82143 4.00797 8.79286 4.02392 8.76429L5.81021 6.45L4.13557 4.23571C4.11962 4.2119 4.11164 4.18333 4.11164 4.15C4.11164 4.10714 4.12759 4.07143 4.15949 4.04286C4.19139 4.01429 4.23126 4 4.27911 4H5.0925C5.1882 4 5.2706 4.04524 5.33971 4.13571L6.51196 5.67857L7.69219 4.13571C7.7613 4.04524 7.8437 4 7.93939 4H8.71292C8.76077 4 8.80064 4.01429 8.83254 4.04286C8.86443 4.07143 8.88038 4.10714 8.88038 4.15C8.88038 4.18333 8.86975 4.2119 8.84848 4.23571L7.18182 6.45L8.9681 8.76429C8.98937 8.80238 9 8.83095 9 8.85C9 8.89286 8.98139 8.92857 8.94418 8.95714C8.91228 8.98571 8.87507 9 8.83254 9H7.98724C7.88623 9 7.80649 8.95714 7.74801 8.87143L6.47209 7.25714L5.2201 8.87143C5.15098 8.95714 5.06858 9 4.97289 9H4.16746Z" fill="white"/>
</svg>
